<svg width="1024" height="1024" viewBox="0 0 1024 1024" fill="none" xmlns="http://www.w3.org/2000/svg">
  <!-- Flame glyph: Phosphor Icons "flame-fill" (MIT License, https://phosphoricons.com) -->
  <defs>
    <linearGradient id="bg" x1="0" y1="0" x2="1024" y2="1024" gradientUnits="userSpaceOnUse">
      <stop offset="0" stop-color="#FF9E00"/>
      <stop offset="1" stop-color="#FF2D55"/>
    </linearGradient>
  </defs>

  <g id="Background">
    <rect width="1024" height="1024" fill="url(#bg)"/>
  </g>

  <g id="Flame" transform="translate(186 180) scale(2.55)">
    <path fill="#FFFFFF"
      d="M173.79,51.48a221.25,221.25,0,0,0-41.67-34.34,8,8,0,0,0-8.24,0A221.25,221.25,0,0,0,82.21,51.48C54.59,80.48,40,112.47,40,144a88,88,0,0,0,176,0C216,112.47,201.41,80.48,173.79,51.48ZM96,184c0-27.67,22.53-47.28,32-54.3,9.48,7,32,26.63,32,54.3a32,32,0,0,1-64,0Z"/>
  </g>
</svg>
